inDegrees=no
num_controls=7
num_derivatives=13
num_iterations=219
num_multipliers=7
num_parameters=0
num_slacks=7
num_states=26
objective=0.509341
objective_accelerations=0.040495
objective_balance=0.003575
objective_effort=0.029459
objective_height=0.323103
objective_ligament=0.112708
solver_duration=2932.387987
status=Solve_Succeeded
success=true
DataType=double
version=3
OpenSimVersion=4.5
endheader
time	/jointset/ground_pelvis/pelvis_tilt/value	/jointset/ground_pelvis/pelvis_tx/value	/jointset/ground_pelvis/pelvis_ty/value	/jointset/hip_l/hip_flexion_l/value	/jointset/hip_l/hip_adduction_l/value	/jointset/hip_l/hip_rotation_l/value	/jointset/back/lumbar_extension/value	/jointset/patellofemoral_l/patellar_flexion_l/value	/jointset/knee_l/knee_flexion_l/value	/jointset/knee_l/knee_adduction_l/value	/jointset/knee_l/knee_rotation_l/value	/jointset/ankle_l/ankle_angle_l/value	/jointset/subtalar_l/subtalar_angle_l/value	/jointset/ground_pelvis/pelvis_tilt/speed	/jointset/ground_pelvis/pelvis_tx/speed	/jointset/ground_pelvis/pelvis_ty/speed	/jointset/hip_l/hip_flexion_l/speed	/jointset/hip_l/hip_adduction_l/speed	/jointset/hip_l/hip_rotation_l/speed	/jointset/back/lumbar_extension/speed	/jointset/patellofemoral_l/patellar_flexion_l/speed	/jointset/knee_l/knee_flexion_l/speed	/jointset/knee_l/knee_adduction_l/speed	/jointset/knee_l/knee_rotation_l/speed	/jointset/ankle_l/ankle_angle_l/speed	/jointset/subtalar_l/subtalar_angle_l/speed	/forceset/tau_hip_flexion_l	/forceset/tau_hip_adduction_l	/forceset/tau_hip_rotation_l	/forceset/tau_knee_flexion_l	/forceset/tau_ankle_angle_l	/forceset/tau_subtalar_angle_l	/forceset/tau_lumbar_extension	lambda_cid13_p0	lambda_cid13_p1	lambda_cid13_p2	lambda_cid13_p3	lambda_cid13_p4	lambda_cid13_p5	lambda_cid14_p0	/jointset/ground_pelvis/pelvis_tilt/accel	/jointset/ground_pelvis/pelvis_tx/accel	/jointset/ground_pelvis/pelvis_ty/accel	/jointset/hip_l/hip_flexion_l/accel	/jointset/hip_l/hip_adduction_l/accel	/jointset/hip_l/hip_rotation_l/accel	/jointset/back/lumbar_extension/accel	/jointset/patellofemoral_l/patellar_flexion_l/accel	/jointset/knee_l/knee_flexion_l/accel	/jointset/knee_l/knee_adduction_l/accel	/jointset/knee_l/knee_rotation_l/accel	/jointset/ankle_l/ankle_angle_l/accel	/jointset/subtalar_l/subtalar_angle_l/accel	gamma_cid13_p0	gamma_cid13_p1	gamma_cid13_p2	gamma_cid13_p3	gamma_cid13_p4	gamma_cid13_p5	gamma_cid14_p0
0	-0.01713511475098124	0.0473072274739885	0.923319236710474	0.3085816938045678	-0.2607804576487866	-0.3177796686761902	-0.3879492264334186	0.2499269421184915	0.2499269421184919	-0.1012952146876314	-0.1745304543465649	-0.0008036623358878681	0.03690402238613384	0	0	0	0	0	0	0	0	0	0	0	0	0	0.103731393903109	-0.03523061493105289	-0.01681713126913449	-0.3000655491344956	0.274792481736918	-0.04966827751418228	-0.01425787766551606	42.13802899355951	13.60328246198465	-1.9495926673242	0.6942563651710332	-633.3047102780374	-52.37009608376169	-22.93380462124089	-1.622153332294472	-1.902620444042789	-0.8341106043568285	8.42145744047116	-0.390467975762727	2.099593414054656	-6.835660982105686	6.983722688104778	6.983722688104771	1.555218195832536	-0.03253077052278664	0.6239598510621247	-0.2028077792295571	1.561256677001373e-08	1.010409600747372e-07	-3.963094026577639e-08	-3.632685454195003e-09	7.836672025519587e-08	4.566955911352448e-08	1.518861903113275e-08
0.01	-0.01721184072640504	0.04721319362577271	0.9232784176136117	0.3089923639909921	-0.2608007834774687	-0.3176740339887967	-0.3882885858505966	0.2502698152167599	0.2502698152167573	-0.1012215543068208	-0.1745301364133133	-0.0007737561081161408	0.03689255334120307	-0.01519708318989249	-0.01871284386551731	-0.008130848890900703	0.08165906546424934	-0.004112406107604076	0.02106042318204028	-0.06732363601752034	0.06829022642903512	0.06829022642903919	0.01452844719835846	5.970039862715943e-05	0.005967020810284622	-0.002347777136739904	0.09312892466502558	-0.03841869886351054	-0.0159711996747896	-0.2868537928834003	0.2558545810316988	-0.03868317715727421	-0.005630081095612955	36.46020223313521	9.66029028429001	-1.131006955251028	2.951099267096831	-635.6736148095323	-59.46767836721597	-22.93825266701187	-1.446270872911673	-1.841528217781205	-0.7976107858838036	7.966884843807615	-0.4287245802236435	2.099301357965916	-6.598477798853576	6.709010598910703	6.709010598911297	1.371127292628054	0.02462708055590893	0.5809429326399073	-0.2588693953368975	3.88211109221114e-09	9.999220779060529e-08	-3.687142531578413e-09	9.616736540538743e-09	1.541543811256844e-08	2.595373551576742e-08	1.265273710352872e-08
0.02	-0.01743609454584011	0.0469348489669064	0.9231572822769551	0.3102053755809382	-0.2608636528976203	-0.3173597881520451	-0.389284734205405	0.251287058175038	0.2512870581750379	-0.1010087155918705	-0.1745293401489885	-0.0006846057249158084	0.03685598518201674	-0.02950556880279347	-0.03686216213010159	-0.01606324795886199	0.1604682807047197	-0.008508718293785439	0.04172222987156816	-0.1313577875261683	0.1348739720023832	0.1348739720023931	0.02783566682833996	9.566621727115827e-05	0.01184883108570082	-0.005019822851107351	0.08252645542692866	-0.04160678279596622	-0.01512526808042598	-0.2736420366323047	0.236916680326484	-0.02769807680036266	0.002997715474277886	30.84063973711109	5.709731274238697	-0.3142235797867822	5.160562470419049	-637.1498509823275	-66.48096667374269	-22.9514151376017	-1.444433816896149	-1.789915323856212	-0.7944206397689475	7.85148739571537	-0.4472491914781859	2.01987011555215	-6.177764080331199	6.64242651696736	6.642426516967705	1.310972682157144	-0.03727768651944579	0.606917744088399	-0.2676614947550822	-7.848344585591446e-09	9.894345550647337e-08	3.225665520261956e-08	2.286615853527249e-08	-4.753584403005899e-08	6.237911918010365e-09	1.011685517592468e-08
0.03	-0.01780009514384942	0.04647824937558846	0.9229576006589859	0.312193139067179	-0.2609719088815804	-0.3168411154921542	-0.3909061192925485	0.252961881565137	0.2529618815651383	-0.1006689387023216	-0.1745284707596597	-0.0005365878657417344	0.03679124827432766	-0.0432339403164847	-0.05432127103627136	-0.02385780586933211	0.2366678958113979	-0.01319747103327495	0.06195641537115073	-0.1925303259860318	0.199826840015005	0.1998268400149875	0.03989301786488558	8.396798773682322e-05	0.01778747887194144	-0.007972558942798467	0.07821606345821129	-0.03654593252658003	-0.01496288814749701	-0.2717438767228625	0.2380527204884207	-0.03092827630946739	0.00723070938484742	31.04416166864128	7.040374752207073	-0.4845623862394592	3.918112445190665	-638.2526354449386	-63.06409416222728	-22.97289756674148	-1.327947550228458	-1.703431282760901	-0.7696926633636461	7.441718876809267	-0.4879554574761755	2.016809377784327	-6.028663141325251	6.38213502992253	6.382135029918143	1.119131504135517	0.01775015985084732	0.592251664790702	-0.3158490724413046	-2.11322810414069e-08	6.251738331492456e-08	6.473303327102655e-08	3.331800354398921e-08	-1.101669145030405e-07	-1.897701655460069e-08	3.114499965915344e-09
